<svg xmlns="http://www.w3.org/2000/svg" xmlns:xlink="http://www.w3.org/1999/xlink" width="500" zoomAndPan="magnify" viewBox="0 0 375 374.999991" height="500" preserveAspectRatio="xMidYMid meet" version="1.0"><defs><g/><clipPath id="8cc036a521"><path d="M 6.464844 98.121094 L 368.714844 98.121094 L 368.714844 251.871094 L 6.464844 251.871094 Z M 6.464844 98.121094 " clip-rule="nonzero"/></clipPath></defs><g clip-path="url(#8cc036a521)"><path fill="#eab308" d="M 187.589844 98.121094 C 132.609375 165.621094 6.503906 215.335938 6.503906 215.335938 C 16.484375 222.414062 49.6875 206.265625 49.6875 206.265625 L 54.949219 251.988281 L 55.3125 205.175781 C 128.617188 181.042969 187.40625 121.710938 187.40625 121.710938 C 187.40625 121.710938 246.378906 181.042969 319.5 205.175781 L 319.863281 251.988281 L 325.125 206.265625 C 325.125 206.265625 358.328125 222.414062 368.308594 215.335938 C 368.492188 215.335938 242.386719 165.621094 187.589844 98.121094 Z M 187.589844 98.121094 " fill-opacity="1" fill-rule="nonzero"/></g><path fill="#eab308" d="M 188.3125 181.585938 L 188.496094 163.625 C 197.023438 150.558594 191.941406 138.039062 191.941406 138.039062 C 191.941406 138.039062 187.042969 126.972656 181.601562 138.039062 C 176.15625 149.109375 185.046875 163.441406 185.046875 163.441406 L 185.230469 179.046875 L 179.96875 173.242188 C 180.691406 168.523438 177.425781 164.53125 177.425781 164.53125 L 164.726562 154.007812 L 161.097656 154.007812 L 172.164062 163.078125 L 172.164062 164.53125 L 162.546875 156.546875 L 160.007812 156.546875 L 170.714844 166.707031 L 170.714844 168.339844 L 160.550781 158.726562 L 158.554688 158.726562 L 169.082031 170.882812 L 169.082031 172.152344 L 159.28125 161.265625 L 156.921875 161.265625 L 171.4375 178.140625 C 173.253906 179.410156 178.152344 177.414062 178.152344 177.414062 L 185.410156 184.128906 L 184.140625 204.992188 C 186.863281 214.609375 189.765625 204.992188 189.765625 204.992188 L 188.496094 187.574219 L 201.195312 201.726562 C 208.453125 202.996094 204.101562 194.46875 204.101562 194.46875 Z M 188.3125 181.585938 " fill-opacity="1" fill-rule="nonzero"/><g fill="#ffffff" fill-opacity="1"><g transform="translate(111.018251, 273.646473)"><g><path d="M 9.90625 -15.796875 C 10.25 -15.773438 10.429688 -15.617188 10.453125 -15.328125 C 10.484375 -15.003906 10.300781 -14.8125 9.90625 -14.75 L 2.078125 -14.78125 L 2.3125 -8.34375 L 8.5625 -8.390625 C 8.90625 -8.378906 9.085938 -8.21875 9.109375 -7.90625 C 9.140625 -7.613281 8.957031 -7.429688 8.5625 -7.359375 L 2.3125 -7.328125 L 2.234375 -1.03125 C 2.191406 -0.53125 2.007812 -0.28125 1.6875 -0.28125 C 1.375 -0.28125 1.210938 -0.515625 1.203125 -0.984375 C 1.273438 -3.285156 1.296875 -5.570312 1.265625 -7.84375 C 1.234375 -10.113281 1.160156 -12.390625 1.046875 -14.671875 C 0.960938 -15.421875 1.09375 -15.796875 1.4375 -15.796875 Z M 9.90625 -15.796875 "/></g></g></g><g fill="#ffffff" fill-opacity="1"><g transform="translate(121.943911, 273.646473)"><g><path d="M 2.515625 -15.234375 C 2.484375 -13.765625 2.46875 -12.378906 2.46875 -11.078125 C 2.46875 -9.785156 2.488281 -8.59375 2.53125 -7.5 C 2.59375 -5.300781 2.867188 -3.738281 3.359375 -2.8125 C 3.867188 -1.894531 4.632812 -1.46875 5.65625 -1.53125 C 6.695312 -1.570312 7.445312 -2.023438 7.90625 -2.890625 C 8.363281 -3.710938 8.65625 -4.890625 8.78125 -6.421875 C 8.882812 -7.910156 8.953125 -9.28125 8.984375 -10.53125 C 8.992188 -11.15625 8.992188 -11.835938 8.984375 -12.578125 C 8.984375 -13.316406 8.96875 -14.125 8.9375 -15 C 9 -15.507812 9.191406 -15.753906 9.515625 -15.734375 C 9.828125 -15.703125 9.972656 -15.457031 9.953125 -15 C 9.972656 -14.101562 9.988281 -13.28125 10 -12.53125 C 10.007812 -11.78125 10.003906 -11.09375 9.984375 -10.46875 C 9.972656 -9.21875 9.890625 -7.722656 9.734375 -5.984375 C 9.585938 -4.265625 9.191406 -2.925781 8.546875 -1.96875 C 7.859375 -0.988281 6.921875 -0.476562 5.734375 -0.4375 C 4.492188 -0.363281 3.519531 -0.804688 2.8125 -1.765625 C 2.46875 -2.242188 2.1875 -2.914062 1.96875 -3.78125 C 1.757812 -4.65625 1.628906 -5.710938 1.578125 -6.953125 C 1.441406 -9.472656 1.421875 -12.253906 1.515625 -15.296875 C 1.566406 -15.734375 1.738281 -15.953125 2.03125 -15.953125 C 2.3125 -15.953125 2.472656 -15.710938 2.515625 -15.234375 Z M 2.515625 -15.234375 "/></g></g></g><g fill="#ffffff" fill-opacity="1"><g transform="translate(132.869572, 273.646473)"><g><path d="M 9.953125 -15.78125 C 10.328125 -15.769531 10.507812 -15.609375 10.5 -15.296875 C 10.46875 -14.984375 10.285156 -14.796875 9.953125 -14.734375 L 1.703125 -14.75 L 1.8125 -8.671875 L 8.921875 -8.703125 C 9.285156 -8.660156 9.46875 -8.492188 9.46875 -8.203125 C 9.46875 -7.910156 9.285156 -7.738281 8.921875 -7.6875 L 1.796875 -7.65625 L 1.734375 -1.578125 L 9.203125 -1.53125 C 9.535156 -1.445312 9.703125 -1.28125 9.703125 -1.03125 C 9.703125 -0.75 9.519531 -0.566406 9.15625 -0.484375 C 6.664062 -0.492188 4.765625 -0.5 3.453125 -0.5 C 2.140625 -0.5 1.421875 -0.507812 1.296875 -0.53125 C 0.984375 -0.53125 0.820312 -0.710938 0.8125 -1.078125 C 0.820312 -1.304688 0.832031 -1.757812 0.84375 -2.4375 C 0.863281 -3.125 0.878906 -4.023438 0.890625 -5.140625 C 0.910156 -7.378906 0.890625 -10.570312 0.828125 -14.71875 C 0.753906 -15.289062 0.875 -15.640625 1.1875 -15.765625 Z M 9.953125 -15.78125 "/></g></g></g><g fill="#ffffff" fill-opacity="1"><g transform="translate(143.795232, 273.646473)"><g><path d="M 2.234375 -15.109375 C 2.429688 -10.910156 2.410156 -6.382812 2.171875 -1.53125 C 3.472656 -1.601562 4.757812 -1.640625 6.03125 -1.640625 C 7.300781 -1.640625 8.539062 -1.597656 9.75 -1.515625 C 10.101562 -1.484375 10.285156 -1.304688 10.296875 -0.984375 C 10.304688 -0.648438 10.125 -0.445312 9.75 -0.375 C 8.476562 -0.476562 7.191406 -0.53125 5.890625 -0.53125 C 4.597656 -0.53125 3.285156 -0.484375 1.953125 -0.390625 C 1.410156 -0.335938 1.191406 -0.6875 1.296875 -1.4375 C 1.410156 -3.9375 1.46875 -6.328125 1.46875 -8.609375 C 1.46875 -10.898438 1.398438 -13.082031 1.265625 -15.15625 C 1.335938 -15.632812 1.492188 -15.875 1.734375 -15.875 C 1.992188 -15.875 2.160156 -15.617188 2.234375 -15.109375 Z M 2.234375 -15.109375 "/></g></g></g><g fill="#ffffff" fill-opacity="1"><g transform="translate(154.720893, 273.646473)"><g><path d="M 9.953125 -15.78125 C 10.328125 -15.769531 10.507812 -15.609375 10.5 -15.296875 C 10.46875 -14.984375 10.285156 -14.796875 9.953125 -14.734375 L 1.703125 -14.75 L 1.8125 -8.671875 L 8.921875 -8.703125 C 9.285156 -8.660156 9.46875 -8.492188 9.46875 -8.203125 C 9.46875 -7.910156 9.285156 -7.738281 8.921875 -7.6875 L 1.796875 -7.65625 L 1.734375 -1.578125 L 9.203125 -1.53125 C 9.535156 -1.445312 9.703125 -1.28125 9.703125 -1.03125 C 9.703125 -0.75 9.519531 -0.566406 9.15625 -0.484375 C 6.664062 -0.492188 4.765625 -0.5 3.453125 -0.5 C 2.140625 -0.5 1.421875 -0.507812 1.296875 -0.53125 C 0.984375 -0.53125 0.820312 -0.710938 0.8125 -1.078125 C 0.820312 -1.304688 0.832031 -1.757812 0.84375 -2.4375 C 0.863281 -3.125 0.878906 -4.023438 0.890625 -5.140625 C 0.910156 -7.378906 0.890625 -10.570312 0.828125 -14.71875 C 0.753906 -15.289062 0.875 -15.640625 1.1875 -15.765625 Z M 9.953125 -15.78125 "/></g></g></g><g fill="#ffffff" fill-opacity="1"><g transform="translate(165.646553, 273.646473)"><g><path d="M 1.484375 -15.625 C 1.953125 -15.644531 2.414062 -15.640625 2.875 -15.609375 C 3.332031 -15.578125 3.785156 -15.523438 4.234375 -15.453125 C 4.703125 -15.378906 5.140625 -15.285156 5.546875 -15.171875 C 5.960938 -15.054688 6.347656 -14.914062 6.703125 -14.75 C 7.421875 -14.4375 8.101562 -13.898438 8.75 -13.140625 C 9.375 -12.367188 9.820312 -11.378906 10.09375 -10.171875 C 10.238281 -9.554688 10.289062 -8.875 10.25 -8.125 C 10.207031 -7.382812 10.082031 -6.585938 9.875 -5.734375 C 9.488281 -3.984375 8.53125 -2.660156 7 -1.765625 C 6.238281 -1.316406 5.398438 -0.988281 4.484375 -0.78125 C 3.566406 -0.582031 2.5625 -0.5 1.46875 -0.53125 C 1.144531 -0.550781 0.953125 -0.660156 0.890625 -0.859375 C 0.835938 -1.046875 0.863281 -1.800781 0.96875 -3.125 C 1.019531 -3.78125 1.054688 -4.613281 1.078125 -5.625 C 1.097656 -6.632812 1.097656 -7.828125 1.078125 -9.203125 C 1.054688 -10.566406 1.023438 -11.6875 0.984375 -12.5625 C 0.953125 -13.4375 0.910156 -14.054688 0.859375 -14.421875 C 0.734375 -15.179688 0.941406 -15.582031 1.484375 -15.625 Z M 1.6875 -1.546875 C 3.65625 -1.492188 5.265625 -1.851562 6.515625 -2.625 C 7.785156 -3.425781 8.613281 -4.554688 9 -6.015625 C 9.425781 -7.515625 9.53125 -8.773438 9.3125 -9.796875 C 9.0625 -10.859375 8.664062 -11.71875 8.125 -12.375 C 7.59375 -13.039062 6.988281 -13.519531 6.3125 -13.8125 C 6 -13.957031 5.660156 -14.082031 5.296875 -14.1875 C 4.929688 -14.289062 4.535156 -14.378906 4.109375 -14.453125 C 3.679688 -14.523438 3.273438 -14.570312 2.890625 -14.59375 C 2.503906 -14.613281 2.140625 -14.617188 1.796875 -14.609375 C 1.878906 -12.984375 1.941406 -11.210938 1.984375 -9.296875 C 2.003906 -8.328125 1.988281 -7.195312 1.9375 -5.90625 C 1.882812 -4.625 1.800781 -3.171875 1.6875 -1.546875 Z M 1.6875 -1.546875 "/></g></g></g><g fill="#ffffff" fill-opacity="1"><g transform="translate(176.572214, 273.646473)"><g><path d="M 9.59375 -8.328125 C 10.019531 -8.253906 10.234375 -8.101562 10.234375 -7.875 C 10.234375 -7.632812 10.019531 -7.492188 9.59375 -7.453125 L 1.3125 -7.46875 C 0.875 -7.46875 0.660156 -7.601562 0.671875 -7.875 C 0.671875 -8.132812 0.898438 -8.289062 1.359375 -8.34375 Z M 9.59375 -8.328125 "/></g></g></g><g fill="#ffffff" fill-opacity="1"><g transform="translate(187.497874, 273.646473)"><g><path d="M 9 -12.171875 C 8.726562 -13.109375 8.304688 -13.773438 7.734375 -14.171875 C 7.179688 -14.578125 6.484375 -14.820312 5.640625 -14.90625 C 4.828125 -15 4.101562 -14.789062 3.46875 -14.28125 C 2.875 -13.789062 2.519531 -13.140625 2.40625 -12.328125 C 2.300781 -11.535156 2.429688 -10.835938 2.796875 -10.234375 C 3.160156 -9.617188 3.957031 -9.097656 5.1875 -8.671875 C 6.4375 -8.265625 7.476562 -7.691406 8.3125 -6.953125 C 9.164062 -6.210938 9.535156 -5.1875 9.421875 -3.875 C 9.304688 -2.539062 8.8125 -1.613281 7.9375 -1.09375 C 7.070312 -0.550781 6.070312 -0.328125 4.9375 -0.421875 C 3.8125 -0.472656 2.875 -0.878906 2.125 -1.640625 C 1.363281 -2.398438 0.929688 -3.375 0.828125 -4.5625 C 0.796875 -5.09375 0.953125 -5.34375 1.296875 -5.3125 C 1.597656 -5.300781 1.769531 -5.097656 1.8125 -4.703125 C 1.914062 -3.785156 2.238281 -3.023438 2.78125 -2.421875 C 3.289062 -1.835938 3.988281 -1.503906 4.875 -1.421875 C 5.757812 -1.335938 6.566406 -1.5 7.296875 -1.90625 C 8.015625 -2.289062 8.390625 -2.992188 8.421875 -4.015625 C 8.429688 -4.992188 8.113281 -5.773438 7.46875 -6.359375 C 6.832031 -6.929688 5.960938 -7.382812 4.859375 -7.71875 C 3.765625 -8.019531 2.878906 -8.570312 2.203125 -9.375 C 1.867188 -9.769531 1.632812 -10.210938 1.5 -10.703125 C 1.375 -11.191406 1.34375 -11.726562 1.40625 -12.3125 C 1.53125 -13.425781 2 -14.328125 2.8125 -15.015625 C 3.226562 -15.347656 3.664062 -15.582031 4.125 -15.71875 C 4.582031 -15.863281 5.054688 -15.921875 5.546875 -15.890625 C 6.535156 -15.804688 7.410156 -15.53125 8.171875 -15.0625 C 8.929688 -14.625 9.492188 -13.835938 9.859375 -12.703125 C 9.972656 -12.265625 9.9375 -11.992188 9.75 -11.890625 C 9.59375 -11.785156 9.34375 -11.878906 9 -12.171875 Z M 9 -12.171875 "/></g></g></g><g fill="#ffffff" fill-opacity="1"><g transform="translate(198.423534, 273.646473)"><g><path d="M 5.984375 -1.109375 C 5.929688 -0.585938 5.78125 -0.320312 5.53125 -0.3125 C 5.25 -0.257812 5.085938 -0.515625 5.046875 -1.078125 L 5.03125 -14.71875 L 1.328125 -14.78125 C 0.984375 -14.644531 0.8125 -14.78125 0.8125 -15.1875 C 0.8125 -15.613281 0.976562 -15.84375 1.3125 -15.875 L 9.984375 -15.765625 C 10.253906 -15.671875 10.398438 -15.476562 10.421875 -15.1875 C 10.453125 -14.914062 10.304688 -14.742188 9.984375 -14.671875 L 6.03125 -14.6875 Z M 5.984375 -1.109375 "/></g></g></g><g fill="#ffffff" fill-opacity="1"><g transform="translate(209.349195, 273.646473)"><g><path d="M 2.515625 -15.234375 C 2.484375 -13.765625 2.46875 -12.378906 2.46875 -11.078125 C 2.46875 -9.785156 2.488281 -8.59375 2.53125 -7.5 C 2.59375 -5.300781 2.867188 -3.738281 3.359375 -2.8125 C 3.867188 -1.894531 4.632812 -1.46875 5.65625 -1.53125 C 6.695312 -1.570312 7.445312 -2.023438 7.90625 -2.890625 C 8.363281 -3.710938 8.65625 -4.890625 8.78125 -6.421875 C 8.882812 -7.910156 8.953125 -9.28125 8.984375 -10.53125 C 8.992188 -11.15625 8.992188 -11.835938 8.984375 -12.578125 C 8.984375 -13.316406 8.96875 -14.125 8.9375 -15 C 9 -15.507812 9.191406 -15.753906 9.515625 -15.734375 C 9.828125 -15.703125 9.972656 -15.457031 9.953125 -15 C 9.972656 -14.101562 9.988281 -13.28125 10 -12.53125 C 10.007812 -11.78125 10.003906 -11.09375 9.984375 -10.46875 C 9.972656 -9.21875 9.890625 -7.722656 9.734375 -5.984375 C 9.585938 -4.265625 9.191406 -2.925781 8.546875 -1.96875 C 7.859375 -0.988281 6.921875 -0.476562 5.734375 -0.4375 C 4.492188 -0.363281 3.519531 -0.804688 2.8125 -1.765625 C 2.46875 -2.242188 2.1875 -2.914062 1.96875 -3.78125 C 1.757812 -4.65625 1.628906 -5.710938 1.578125 -6.953125 C 1.441406 -9.472656 1.421875 -12.253906 1.515625 -15.296875 C 1.566406 -15.734375 1.738281 -15.953125 2.03125 -15.953125 C 2.3125 -15.953125 2.472656 -15.710938 2.515625 -15.234375 Z M 2.515625 -15.234375 "/></g></g></g><g fill="#ffffff" fill-opacity="1"><g transform="translate(220.274855, 273.646473)"><g><path d="M 1.484375 -15.625 C 1.953125 -15.644531 2.414062 -15.640625 2.875 -15.609375 C 3.332031 -15.578125 3.785156 -15.523438 4.234375 -15.453125 C 4.703125 -15.378906 5.140625 -15.285156 5.546875 -15.171875 C 5.960938 -15.054688 6.347656 -14.914062 6.703125 -14.75 C 7.421875 -14.4375 8.101562 -13.898438 8.75 -13.140625 C 9.375 -12.367188 9.820312 -11.378906 10.09375 -10.171875 C 10.238281 -9.554688 10.289062 -8.875 10.25 -8.125 C 10.207031 -7.382812 10.082031 -6.585938 9.875 -5.734375 C 9.488281 -3.984375 8.53125 -2.660156 7 -1.765625 C 6.238281 -1.316406 5.398438 -0.988281 4.484375 -0.78125 C 3.566406 -0.582031 2.5625 -0.5 1.46875 -0.53125 C 1.144531 -0.550781 0.953125 -0.660156 0.890625 -0.859375 C 0.835938 -1.046875 0.863281 -1.800781 0.96875 -3.125 C 1.019531 -3.78125 1.054688 -4.613281 1.078125 -5.625 C 1.097656 -6.632812 1.097656 -7.828125 1.078125 -9.203125 C 1.054688 -10.566406 1.023438 -11.6875 0.984375 -12.5625 C 0.953125 -13.4375 0.910156 -14.054688 0.859375 -14.421875 C 0.734375 -15.179688 0.941406 -15.582031 1.484375 -15.625 Z M 1.6875 -1.546875 C 3.65625 -1.492188 5.265625 -1.851562 6.515625 -2.625 C 7.785156 -3.425781 8.613281 -4.554688 9 -6.015625 C 9.425781 -7.515625 9.53125 -8.773438 9.3125 -9.796875 C 9.0625 -10.859375 8.664062 -11.71875 8.125 -12.375 C 7.59375 -13.039062 6.988281 -13.519531 6.3125 -13.8125 C 6 -13.957031 5.660156 -14.082031 5.296875 -14.1875 C 4.929688 -14.289062 4.535156 -14.378906 4.109375 -14.453125 C 3.679688 -14.523438 3.273438 -14.570312 2.890625 -14.59375 C 2.503906 -14.613281 2.140625 -14.617188 1.796875 -14.609375 C 1.878906 -12.984375 1.941406 -11.210938 1.984375 -9.296875 C 2.003906 -8.328125 1.988281 -7.195312 1.9375 -5.90625 C 1.882812 -4.625 1.800781 -3.171875 1.6875 -1.546875 Z M 1.6875 -1.546875 "/></g></g></g><g fill="#ffffff" fill-opacity="1"><g transform="translate(231.200516, 273.646473)"><g><path d="M 9.953125 -15.78125 C 10.328125 -15.769531 10.507812 -15.609375 10.5 -15.296875 C 10.46875 -14.984375 10.285156 -14.796875 9.953125 -14.734375 L 1.703125 -14.75 L 1.8125 -8.671875 L 8.921875 -8.703125 C 9.285156 -8.660156 9.46875 -8.492188 9.46875 -8.203125 C 9.46875 -7.910156 9.285156 -7.738281 8.921875 -7.6875 L 1.796875 -7.65625 L 1.734375 -1.578125 L 9.203125 -1.53125 C 9.535156 -1.445312 9.703125 -1.28125 9.703125 -1.03125 C 9.703125 -0.75 9.519531 -0.566406 9.15625 -0.484375 C 6.664062 -0.492188 4.765625 -0.5 3.453125 -0.5 C 2.140625 -0.5 1.421875 -0.507812 1.296875 -0.53125 C 0.984375 -0.53125 0.820312 -0.710938 0.8125 -1.078125 C 0.820312 -1.304688 0.832031 -1.757812 0.84375 -2.4375 C 0.863281 -3.125 0.878906 -4.023438 0.890625 -5.140625 C 0.910156 -7.378906 0.890625 -10.570312 0.828125 -14.71875 C 0.753906 -15.289062 0.875 -15.640625 1.1875 -15.765625 Z M 9.953125 -15.78125 "/></g></g></g><g fill="#ffffff" fill-opacity="1"><g transform="translate(242.126176, 273.646473)"><g><path d="M 10.03125 -15.390625 C 9.8125 -13.140625 9.640625 -10.800781 9.515625 -8.375 C 9.390625 -5.957031 9.316406 -3.441406 9.296875 -0.828125 C 9.015625 -0.484375 8.742188 -0.46875 8.484375 -0.78125 C 8.203125 -1.09375 6.0625 -5.488281 2.0625 -13.96875 C 2.132812 -12.40625 2.179688 -10.550781 2.203125 -8.40625 C 2.234375 -6.257812 2.242188 -3.816406 2.234375 -1.078125 C 2.234375 -0.585938 2.070312 -0.34375 1.75 -0.34375 C 1.445312 -0.332031 1.296875 -0.539062 1.296875 -0.96875 C 1.304688 -3.9375 1.296875 -6.378906 1.265625 -8.296875 C 1.234375 -10.222656 1.191406 -11.609375 1.140625 -12.453125 C 1.003906 -14.160156 1.023438 -15.164062 1.203125 -15.46875 C 1.347656 -15.75 1.582031 -15.8125 1.90625 -15.65625 C 2.0625 -15.550781 2.195312 -15.441406 2.3125 -15.328125 C 2.425781 -15.210938 2.53125 -15.085938 2.625 -14.953125 C 2.707031 -14.804688 3.226562 -13.757812 4.1875 -11.8125 C 5.144531 -9.863281 6.53125 -7.019531 8.34375 -3.28125 C 8.363281 -5.070312 8.429688 -6.984375 8.546875 -9.015625 C 8.660156 -11.046875 8.8125 -13.1875 9 -15.4375 C 9.0625 -15.882812 9.242188 -16.09375 9.546875 -16.0625 C 9.828125 -16.019531 9.988281 -15.796875 10.03125 -15.390625 Z M 10.03125 -15.390625 "/></g></g></g><g fill="#ffffff" fill-opacity="1"><g transform="translate(253.051837, 273.646473)"><g><path d="M 5.984375 -1.109375 C 5.929688 -0.585938 5.78125 -0.320312 5.53125 -0.3125 C 5.25 -0.257812 5.085938 -0.515625 5.046875 -1.078125 L 5.03125 -14.71875 L 1.328125 -14.78125 C 0.984375 -14.644531 0.8125 -14.78125 0.8125 -15.1875 C 0.8125 -15.613281 0.976562 -15.84375 1.3125 -15.875 L 9.984375 -15.765625 C 10.253906 -15.671875 10.398438 -15.476562 10.421875 -15.1875 C 10.453125 -14.914062 10.304688 -14.742188 9.984375 -14.671875 L 6.03125 -14.6875 Z M 5.984375 -1.109375 "/></g></g></g><g fill="#eab308" fill-opacity="1"><g transform="translate(71.568011, 242.783078)"><g><path d="M 12.1875 -7.421875 C 13.390625 -7.421875 15.359375 -6.734375 16.015625 -6.078125 L 16.125 -6.1875 C 15.46875 -6.84375 14.78125 -8.8125 14.78125 -10.015625 C 14.78125 -11.21875 15.46875 -13.1875 16.125 -13.84375 L 16.015625 -13.953125 C 15.359375 -13.296875 13.390625 -12.609375 12.1875 -12.609375 L 4.9375 -12.609375 C 3.734375 -12.609375 1.765625 -13.296875 1.109375 -13.953125 L 1 -13.84375 C 1.65625 -13.1875 2.34375 -11.21875 2.34375 -10.015625 C 2.34375 -8.8125 1.65625 -6.84375 1 -6.1875 L 1.109375 -6.078125 C 1.765625 -6.734375 3.734375 -7.421875 4.9375 -7.421875 Z M 12.1875 -7.421875 "/></g></g></g><g fill="#eab308" fill-opacity="1"><g transform="translate(97.878412, 242.783078)"><g><path d="M 9.421875 -14.84375 L 9.421875 -19.6875 L 15.984375 -19.6875 C 17.296875 -19.6875 19.40625 -18.953125 20.09375 -18.265625 L 20.171875 -18.34375 C 19.46875 -19.03125 18.75 -21.140625 18.75 -22.453125 C 18.75 -23.75 19.46875 -25.859375 20.171875 -26.546875 L 20.09375 -26.625 C 19.40625 -25.9375 17.296875 -25.203125 15.984375 -25.203125 L 5.28125 -25.203125 C 3.96875 -25.203125 1.859375 -25.9375 1.171875 -26.625 L 1.109375 -26.546875 C 1.796875 -25.859375 2.515625 -23.75 2.515625 -22.453125 L 2.515625 -2.765625 C 2.515625 -1.453125 1.796875 0.65625 1.109375 1.34375 L 1.171875 1.421875 C 1.859375 0.71875 3.96875 0 5.28125 0 L 6.671875 0 C 7.984375 0 10.078125 0.71875 10.78125 1.421875 L 10.84375 1.34375 C 10.15625 0.65625 9.421875 -1.453125 9.421875 -2.765625 L 9.421875 -9.671875 L 15.46875 -9.671875 C 16.671875 -9.671875 18.640625 -8.984375 19.296875 -8.328125 L 19.40625 -8.421875 C 18.75 -9.078125 18.0625 -11.046875 18.0625 -12.265625 C 18.0625 -13.46875 18.75 -15.4375 19.40625 -16.09375 L 19.296875 -16.1875 C 18.640625 -15.546875 16.671875 -14.84375 15.46875 -14.84375 Z M 9.421875 -14.84375 "/></g></g></g><g fill="#eab308" fill-opacity="1"><g transform="translate(127.813784, 242.783078)"><g><path d="M 12.1875 0.34375 C 18.6875 0.34375 22.203125 -2.828125 22.203125 -9.328125 L 22.203125 -22.453125 C 22.203125 -23.75 22.921875 -25.859375 23.625 -26.546875 L 23.546875 -26.625 C 22.859375 -25.9375 20.75 -25.203125 19.4375 -25.203125 L 18.125 -25.203125 C 16.8125 -25.203125 14.703125 -25.9375 14.015625 -26.625 L 13.953125 -26.546875 C 14.640625 -25.859375 15.359375 -23.75 15.359375 -22.453125 L 15.359375 -8.8125 C 15.359375 -6.109375 14.4375 -5.1875 12.265625 -5.1875 C 10.078125 -5.1875 9.15625 -6.109375 9.15625 -8.8125 L 9.15625 -22.453125 C 9.15625 -23.75 9.875 -25.859375 10.5625 -26.546875 L 10.5 -26.625 C 9.8125 -25.9375 7.703125 -25.203125 6.390625 -25.203125 L 4.9375 -25.203125 C 3.625 -25.203125 1.515625 -25.9375 0.828125 -26.625 L 0.765625 -26.546875 C 1.453125 -25.859375 2.171875 -23.75 2.171875 -22.453125 L 2.171875 -9.328125 C 2.171875 -2.828125 5.703125 0.34375 12.1875 0.34375 Z M 12.1875 0.34375 "/></g></g></g><g fill="#eab308" fill-opacity="1"><g transform="translate(161.374143, 242.783078)"><g><path d="M 9.421875 -15.546875 L 9.421875 -19.6875 L 16.328125 -19.6875 C 17.640625 -19.6875 19.75 -18.953125 20.4375 -18.265625 L 20.515625 -18.34375 C 19.828125 -19.03125 19.09375 -21.140625 19.09375 -22.453125 C 19.09375 -23.75 19.828125 -25.859375 20.515625 -26.546875 L 20.4375 -26.625 C 19.75 -25.9375 17.640625 -25.203125 16.328125 -25.203125 L 5.28125 -25.203125 C 3.96875 -25.203125 1.859375 -25.9375 1.171875 -26.625 L 1.109375 -26.546875 C 1.796875 -25.859375 2.515625 -23.75 2.515625 -22.453125 L 2.515625 -2.765625 C 2.515625 -1.453125 1.796875 0.65625 1.109375 1.34375 L 1.171875 1.421875 C 1.859375 0.71875 3.96875 0 5.28125 0 L 16.328125 0 C 17.640625 0 19.75 0.71875 20.4375 1.421875 L 20.515625 1.34375 C 19.828125 0.65625 19.09375 -1.453125 19.09375 -2.765625 C 19.09375 -4.078125 19.828125 -6.1875 20.515625 -6.875 L 20.4375 -6.9375 C 19.75 -6.25 17.640625 -5.53125 16.328125 -5.53125 L 9.421875 -5.53125 L 9.421875 -10.359375 L 15.8125 -10.359375 C 17.03125 -10.359375 19 -9.671875 19.640625 -9.015625 L 19.75 -9.109375 C 19.09375 -9.765625 18.40625 -11.734375 18.40625 -12.953125 C 18.40625 -14.15625 19.09375 -16.125 19.75 -16.78125 L 19.640625 -16.890625 C 19 -16.234375 17.03125 -15.546875 15.8125 -15.546875 Z M 9.421875 -15.546875 "/></g></g></g><g fill="#eab308" fill-opacity="1"><g transform="translate(191.827374, 242.783078)"><g><path d="M 5.28125 -25.203125 C 3.96875 -25.203125 1.859375 -25.9375 1.171875 -26.625 L 1.109375 -26.546875 C 1.796875 -25.859375 2.515625 -23.75 2.515625 -22.453125 L 2.515625 -2.765625 C 2.515625 -1.453125 1.796875 0.65625 1.109375 1.34375 L 1.171875 1.421875 C 1.859375 0.71875 3.96875 0 5.28125 0 L 17.03125 0 C 18.34375 0 20.4375 0.71875 21.140625 1.421875 L 21.203125 1.34375 C 20.515625 0.65625 19.78125 -1.453125 19.78125 -2.765625 L 19.78125 -2.9375 C 19.78125 -4.25 20.515625 -6.359375 21.203125 -7.046875 L 21.140625 -7.109375 C 20.4375 -6.421875 18.34375 -5.703125 17.03125 -5.703125 L 9.59375 -5.703125 L 9.59375 -22.453125 C 9.59375 -23.75 10.328125 -25.859375 11.015625 -26.546875 L 10.953125 -26.625 C 10.25 -25.9375 8.15625 -25.203125 6.84375 -25.203125 Z M 5.28125 -25.203125 "/></g></g></g><g fill="#eab308" fill-opacity="1"><g transform="translate(222.453225, 242.783078)"><g><path d="M 9.421875 -15.546875 L 9.421875 -19.6875 L 16.328125 -19.6875 C 17.640625 -19.6875 19.75 -18.953125 20.4375 -18.265625 L 20.515625 -18.34375 C 19.828125 -19.03125 19.09375 -21.140625 19.09375 -22.453125 C 19.09375 -23.75 19.828125 -25.859375 20.515625 -26.546875 L 20.4375 -26.625 C 19.75 -25.9375 17.640625 -25.203125 16.328125 -25.203125 L 5.28125 -25.203125 C 3.96875 -25.203125 1.859375 -25.9375 1.171875 -26.625 L 1.109375 -26.546875 C 1.796875 -25.859375 2.515625 -23.75 2.515625 -22.453125 L 2.515625 -2.765625 C 2.515625 -1.453125 1.796875 0.65625 1.109375 1.34375 L 1.171875 1.421875 C 1.859375 0.71875 3.96875 0 5.28125 0 L 16.328125 0 C 17.640625 0 19.75 0.71875 20.4375 1.421875 L 20.515625 1.34375 C 19.828125 0.65625 19.09375 -1.453125 19.09375 -2.765625 C 19.09375 -4.078125 19.828125 -6.1875 20.515625 -6.875 L 20.4375 -6.9375 C 19.75 -6.25 17.640625 -5.53125 16.328125 -5.53125 L 9.421875 -5.53125 L 9.421875 -10.359375 L 15.8125 -10.359375 C 17.03125 -10.359375 19 -9.671875 19.640625 -9.015625 L 19.75 -9.109375 C 19.09375 -9.765625 18.40625 -11.734375 18.40625 -12.953125 C 18.40625 -14.15625 19.09375 -16.125 19.75 -16.78125 L 19.640625 -16.890625 C 19 -16.234375 17.03125 -15.546875 15.8125 -15.546875 Z M 9.421875 -15.546875 "/></g></g></g><g fill="#eab308" fill-opacity="1"><g transform="translate(252.906456, 242.783078)"><g><path d="M 23.234375 -12.953125 C 23.234375 -20.859375 18.40625 -25.546875 10.125 -25.546875 C 8.359375 -25.546875 6.59375 -25.484375 4.90625 -25.3125 C 3.9375 -25.3125 2.109375 -25.515625 1.375 -26.25 L 1.28125 -26.171875 C 1.859375 -25.59375 2.515625 -23.71875 2.515625 -22.65625 L 2.515625 -2.5625 C 2.515625 -1.484375 1.859375 0.375 1.28125 0.96875 L 1.375 1.03125 C 2.109375 0.3125 3.9375 0.109375 4.90625 0.109375 C 6.59375 0.28125 8.359375 0.34375 10.125 0.34375 C 18.234375 0.34375 23.234375 -4.21875 23.234375 -12.953125 Z M 9.25 -20.03125 C 9.734375 -20.125 10.25 -20.203125 10.8125 -20.203125 C 14.640625 -20.203125 16.671875 -18.09375 16.671875 -12.953125 C 16.671875 -7.1875 14.609375 -5 10.8125 -5 C 10.25 -5 9.734375 -5.078125 9.25 -5.1875 Z M 9.25 -20.03125 "/></g></g></g><g fill="#eab308" fill-opacity="1"><g transform="translate(286.294195, 242.783078)"><g><path d="M 12.1875 -7.421875 C 13.390625 -7.421875 15.359375 -6.734375 16.015625 -6.078125 L 16.125 -6.1875 C 15.46875 -6.84375 14.78125 -8.8125 14.78125 -10.015625 C 14.78125 -11.21875 15.46875 -13.1875 16.125 -13.84375 L 16.015625 -13.953125 C 15.359375 -13.296875 13.390625 -12.609375 12.1875 -12.609375 L 4.9375 -12.609375 C 3.734375 -12.609375 1.765625 -13.296875 1.109375 -13.953125 L 1 -13.84375 C 1.65625 -13.1875 2.34375 -11.21875 2.34375 -10.015625 C 2.34375 -8.8125 1.65625 -6.84375 1 -6.1875 L 1.109375 -6.078125 C 1.765625 -6.734375 3.734375 -7.421875 4.9375 -7.421875 Z M 12.1875 -7.421875 "/></g></g></g></svg>